<!-- Adapted from https://www.reshot.com/free-svg-icons/item/magic-lamp-GLZA6FWKUN/ -->
<svg xmlns="http://www.w3.org/2000/svg" width="64" height="64" xml:space="preserve">
  <style>
    .smoke { fill: #1373bd; fill-opacity: 0.3; }
    .fill { fill: #1373bd; fill-opacity: 0.5; }
    .line { fill: #0a3b60; }

    @media (prefers-color-scheme: dark) {
      .smoke { fill: #a6d3f6; fill-opacity: 0.45; }
      .fill { fill: #1373bd; fill-opacity: 1; }
      .line { fill: #a6d3f6; }
    }
  </style>

  <path class="smoke" d="m24 1 30 6c-6.63 0-12 5.37-12 12 0 9.95 8.05 18 18 18-19.9 0-36-16.1-36-36z" />

  <g class="fill">
    <path d="M31 57.59 35 63H18l4-5.46c1.27.3 2.61.46 4 .46 1.82 0 3.47-.15 5-.41z" />
    <path d="M26 32c1.11 0 2 .89 2 2a2 2 0 1 1-2-2zM14.07 43c2.46-2.87 6.88-5 11.93-5 4.76 0 8.96 2.27 11.48 4.95l-.06.05H14.07z" />
    <path d="M7.5 50h4.83c.34 1.05.93 2.06 1.74 3H7.5a6.5 6.5 0 1 1 0-13c3.48 0 4.49 3.01 6.57 3-.73.85-1.28 1.76-1.641 2.7-1.109-.36-1.96-1.05-2.64-1.59C8.86 43.36 8.37 43 7.5 43 5.57 43 4 44.57 4 46.5S5.57 50 7.5 50z" />
    <path d="M60 45v1c-13.18 1.76-17.87 9.7-29 11.59-1.53.26-3.18.41-5 .41-1.39 0-2.73-.16-4-.46-3.34-.771-6.15-2.46-7.93-4.54-.811-.94-1.4-1.95-1.74-3-.22-.66-.33-1.33-.33-2 0-.77.15-1.55.43-2.3.36-.94.91-1.851 1.641-2.7H37.42l.061-.05c.329.34.63.689.899 1.05C41.02 46.62 51 43 57 43l3 2z" />
  </g>

  <g class="line">
    <path d="M26 59a1 1 0 1 1 0-2c7.717 0 12.432-2.745 17.423-5.652 4.25-2.475 8.636-5.029 15.096-6.134l-1.816-1.211c-2.094.043-4.725.515-7.272.973-5 .898-9.722 1.746-11.754-.265a1.001 1.001 0 0 1 1.408-1.422c1.292 1.281 5.914.451 9.992-.282C51.833 42.512 54.684 42 57 42c.197 0 .391.059.555.168l3 2c.278.186.445.498.445.832v1a1 1 0 0 1-.868.991c-6.814.908-11.333 3.54-15.703 6.085C39.198 56.122 34.257 59 26 59z" />
    <path d="m37.415 44-23.316-.002a1 1 0 1 1 0-2L37.415 42a1 1 0 1 1 0 2zM26 37c-1.654 0-3-1.346-3-3s1.346-3 3-3 3 1.346 3 3-1.346 3-3 3zm0-4a1 1 0 1 0 0 2 1 1 0 0 0 0-2z" />
    <path d="M26 59c-7.99 0-15-5.141-15-11s7.01-11 15-11a1 1 0 1 1 0 2c-7.44 0-13 4.752-13 9s5.56 9 13 9a1 1 0 1 1 0 2z" />
    <path d="M38.382 45.002a.998.998 0 0 1-.799-.397C35.475 41.815 31.076 39 26 39a1 1 0 1 1 0-2c6.158 0 10.948 3.447 13.179 6.399a.999.999 0 0 1-.797 1.603z" />
    <path d="M26 39a1 1 0 0 1-1-1v-2a1 1 0 1 1 2 0v2a1 1 0 0 1-1 1zM35.001 64c-.307 0-.608-.141-.805-.405l-4-5.407a.999.999 0 1 1 1.607-1.189l4 5.407A.999.999 0 0 1 35.001 64zM17.999 64a.998.998 0 0 1-.806-1.59l4-5.456a.999.999 0 1 1 1.613 1.181l-4 5.456a.999.999 0 0 1-.807.409z" />
    <path d="M35 64H18a1 1 0 1 1 0-2h17a1 1 0 1 1 0 2zM14.067 54H7.5C3.364 54 0 50.636 0 46.5S3.364 39 7.5 39c2.318 0 3.751 1.163 4.798 2.012.752.61 1.242.986 1.763.986h.038a1 1 0 0 1 .019 2c-1.302-.006-2.197-.718-3.08-1.434C10.046 41.76 9.109 41 7.5 41 4.468 41 2 43.468 2 46.5S4.468 52 7.5 52h6.567a1 1 0 1 1 0 2z" />
    <path d="M12.328 51H7.5C5.019 51 3 48.981 3 46.5S5.019 42 7.5 42c1.261 0 1.99.585 2.913 1.326.651.523 1.389 1.116 2.332 1.426.524.173.81.738.638 1.263-.173.524-.739.81-1.263.638-1.288-.424-2.254-1.2-2.959-1.767C8.267 44.168 8.006 44 7.5 44 6.121 44 5 45.121 5 46.5S6.121 49 7.5 49h4.828a1 1 0 1 1 0 2zM61 43a1 1 0 1 1 0-2 1 1 0 0 0 1-1 1 1 0 1 1 2 0c0 1.654-1.346 3-3 3z" />
    <path d="M63 41a1 1 0 0 1-1-1c0-1.103-.897-2-2-2a1 1 0 1 1 0-2c2.206 0 4 1.794 4 4a1 1 0 0 1-1 1z" />
    <path d="M60 38c-10.477 0-19-8.523-19-19a1 1 0 1 1 2 0c0 9.374 7.626 17 17 17a1 1 0 1 1 0 2z" />
    <path d="M60 38C39.598 38 23 21.402 23 1a1 1 0 1 1 2 0c0 19.299 15.701 35 35 35a1 1 0 1 1 0 2z" />
    <path d="M42 20a1 1 0 0 1-1-1c0-7.168 5.832-13 13-13a1 1 0 1 1 0 2c-6.065 0-11 4.935-11 11a1 1 0 0 1-1" />
  </g>

</svg>
